<svg width="8" height="17" viewBox="0 0 8 17" fill="none" xmlns="http://www.w3.org/2000/svg">
<path d="M6.36328 11.7041C6.36328 11.1709 6.2168 10.7227 5.92383 10.3594C5.63086 9.99023 5.12695 9.65039 4.41211 9.33984C3.36328 8.95898 2.59863 8.46387 2.11816 7.85449C1.6377 7.23926 1.39746 6.45996 1.39746 5.5166C1.39746 4.55566 1.62891 3.77344 2.0918 3.16992C2.56055 2.56055 3.19629 2.19141 3.99902 2.0625V0.128906H5.23828V2.07129C6.05859 2.21777 6.69141 2.63672 7.13672 3.32812C7.58789 4.01367 7.81348 4.95117 7.81348 6.14062H6.27539C6.27539 5.32617 6.12598 4.67285 5.82715 4.18066C5.52832 3.68848 5.11816 3.44238 4.59668 3.44238C4.0752 3.44238 3.66797 3.62109 3.375 3.97852C3.08789 4.33594 2.94434 4.83984 2.94434 5.49023C2.94434 6.08203 3.09961 6.55664 3.41016 6.91406C3.72656 7.26562 4.23926 7.59082 4.94824 7.88965C6.00879 8.28809 6.76758 8.78613 7.22461 9.38379C7.6875 9.97559 7.91895 10.7432 7.91895 11.6865C7.91895 12.6475 7.67285 13.4326 7.18066 14.042C6.68848 14.6514 5.98242 15.0176 5.0625 15.1406V16.8281H3.84082V15.1406C2.91504 15.0059 2.20605 14.6016 1.71387 13.9277C1.22168 13.2539 0.975586 12.3545 0.975586 11.2295H2.52246C2.52246 12.0439 2.68652 12.6709 3.01465 13.1104C3.34277 13.5498 3.80566 13.7695 4.40332 13.7695C5.0127 13.7695 5.49023 13.5879 5.83594 13.2246C6.1875 12.8555 6.36328 12.3486 6.36328 11.7041Z" fill="#01353E"/>
</svg>
